<?xml version="1.0" ?><svg width="512px" height="512px" viewBox="0 0 512 512" style="enable-background:new 0 0 512 512;" version="1.1" xml:space="preserve" xmlns="http://www.w3.org/2000/svg" xmlns:xlink="http://www.w3.org/1999/xlink"><style type="text/css">
	.st0{fill:#333333;}
</style><g id="Layer_1"/><g id="Layer_2"><g><path class="st0" d="M73.68,472.11c25.47,0,46.18-20.72,46.18-46.18V314.37c0-25.47-20.72-46.18-46.18-46.18    S27.5,288.9,27.5,314.37v111.56C27.5,451.39,48.22,472.11,73.68,472.11z M59.5,314.37c0-7.82,6.36-14.18,14.18-14.18    s14.18,6.36,14.18,14.18v111.56c0,7.82-6.36,14.18-14.18,14.18s-14.18-6.36-14.18-14.18V314.37z"/><path class="st0" d="M149.04,245.95v179.98c0,25.47,20.72,46.18,46.18,46.18s46.18-20.72,46.18-46.18V245.95    c0-25.47-20.72-46.18-46.18-46.18S149.04,220.49,149.04,245.95z M209.41,245.95v179.98c0,7.82-6.36,14.18-14.18,14.18    s-14.18-6.36-14.18-14.18V245.95c0-7.82,6.36-14.18,14.18-14.18S209.41,238.13,209.41,245.95z"/><path class="st0" d="M316.77,125.67c-25.47,0-46.18,20.72-46.18,46.18v254.07c0,25.47,20.72,46.18,46.18,46.18    s46.18-20.72,46.18-46.18V171.86C362.96,146.39,342.24,125.67,316.77,125.67z M330.96,425.93c0,7.82-6.36,14.18-14.18,14.18    s-14.18-6.36-14.18-14.18V171.86c0-7.82,6.36-14.18,14.18-14.18s14.18,6.36,14.18,14.18V425.93z"/><path class="st0" d="M392.13,86.07v339.86c0,25.47,20.72,46.18,46.18,46.18s46.18-20.72,46.18-46.18V86.07    c0-25.47-20.72-46.18-46.18-46.18S392.13,60.61,392.13,86.07z M452.5,86.07v339.86c0,7.82-6.36,14.18-14.18,14.18    s-14.18-6.36-14.18-14.18V86.07c0-7.82,6.36-14.18,14.18-14.18S452.5,78.25,452.5,86.07z"/></g></g></svg>