<?xml version="1.0" ?><svg width="512px" height="512px" viewBox="0 0 512 512" style="enable-background:new 0 0 512 512;" version="1.1" xml:space="preserve" xmlns="http://www.w3.org/2000/svg" xmlns:xlink="http://www.w3.org/1999/xlink"><style type="text/css">
	.st0{fill:#333333;}
</style><g id="Layer_1"/><g id="Layer_2"><g><path class="st0" d="M131.9,351.7v39.74h-6.57c-25.66,0-46.53,20.87-46.53,46.53s20.87,46.53,46.53,46.53h261.33    c25.66,0,46.53-20.87,46.53-46.53s-20.87-46.53-46.53-46.53h-6.57V351.7c0-34.51-20.3-66.04-51.71-80.34L294.63,256l33.76-15.36    c31.41-14.29,51.71-45.83,51.71-80.34v-39.74h6.57c25.66,0,46.53-20.87,46.53-46.53S412.32,27.5,386.67,27.5H125.33    c-25.66,0-46.53,20.87-46.53,46.53s20.87,46.53,46.53,46.53h6.57v39.74c0,34.51,20.3,66.04,51.71,80.34L217.37,256l-33.76,15.36    C152.2,285.66,131.9,317.19,131.9,351.7z M401.19,437.97c0,8.01-6.52,14.53-14.53,14.53H125.33c-8.01,0-14.53-6.52-14.53-14.53    s6.52-14.53,14.53-14.53h22.57h216.2h22.57C394.68,423.45,401.19,429.96,401.19,437.97z M110.81,74.03    c0-8.01,6.52-14.53,14.53-14.53h261.33c8.01,0,14.53,6.52,14.53,14.53s-6.52,14.53-14.53,14.53H364.1H147.9h-22.57    C117.32,88.55,110.81,82.04,110.81,74.03z M163.9,160.3v-39.74h184.2v39.74c0,22-12.94,42.1-32.96,51.21L256,238.42l-59.14-26.91    C176.84,202.4,163.9,182.3,163.9,160.3z M256,273.58l59.14,26.91c20.02,9.11,32.96,29.21,32.96,51.21v39.74H163.9V351.7    c0-22,12.94-42.1,32.96-51.21L256,273.58z"/></g></g></svg>